<svg xmlns="http://www.w3.org/2000/svg" width="50.149" height="44.034" viewBox="0 0 50.149 44.034">
  <g id="Group_2258" data-name="Group 2258" transform="translate(152.829 -2665.472)">
    <g id="Group_2255" data-name="Group 2255" transform="translate(-152.829 2665.472)">
      <g id="Group_932" data-name="Group 932" transform="translate(0 0)">
        <path id="Path_1519" data-name="Path 1519" d="M3479.517,333.117c-9.352-5.226-31.905-7.7-37.131,1.65s-5.776,25.579,1.925,33.005,27.229,6.876,37.956-7.151S3488.869,338.343,3479.517,333.117Z" transform="translate(-3438.487 -328.471)" fill="#ffb148"/>
        <path id="Path_1525" data-name="Path 1525" d="M314.934,315.342a4.57,4.57,0,0,0-4.021,1.4c-.842.865-3.558,3.733-4.182,4.383l-13.37-2.564-2.176,2.27,11.127,5.459-3.741,3.9-5.04-1.059-1.379,1.439,4.173,2.407-.56,1.249,1.107,1.061,1.224-.612,2.581,4.067,1.38-1.44-1.272-4.99,3.741-3.9,5.926,10.885,2.176-2.27-3.129-13.25c.623-.65,3.373-3.485,4.2-4.364a4.571,4.571,0,0,0,1.233-4.077" transform="translate(-280.913 -305.928)" fill="none" stroke="#fafafa" stroke-linecap="round" stroke-linejoin="round" stroke-width="2"/>
      </g>
    </g>
  </g>
</svg>
