<svg xmlns="http://www.w3.org/2000/svg" width="62.98" height="62.98" viewBox="0 0 62.98 62.98">
  <g id="English" transform="translate(-507 -142)">
    <g id="Group_427" data-name="Group 427" transform="translate(-1863 851)">
      <g id="Group_419" data-name="Group 419" transform="translate(2370 -709)">
        <path id="Path_256" data-name="Path 256" d="M227.18,0H273.8a8.184,8.184,0,0,1,8.18,8.18V54.8a8.184,8.184,0,0,1-8.18,8.18H227.18A8.184,8.184,0,0,1,219,54.8V8.18A8.184,8.184,0,0,1,227.18,0Z" transform="translate(-219)" fill="#ffe6e2" fill-rule="evenodd"/>
      </g>
      <g id="Group_426" data-name="Group 426">
        <g id="Group_424" data-name="Group 424" transform="translate(2382 -699)">
          <g id="Group_420" data-name="Group 420" transform="translate(2.454)">
            <path id="Path_257" data-name="Path 257" d="M241.09,12H268.9a4.092,4.092,0,0,1,4.09,4.09V51.263a4.092,4.092,0,0,1-4.09,4.09H241.09a4.092,4.092,0,0,1-4.09-4.09V16.09A4.092,4.092,0,0,1,241.09,12Z" transform="translate(-237 -12)" fill="#fc573b" fill-rule="evenodd"/>
          </g>
          <g id="Group_423" data-name="Group 423" transform="translate(0 9.407)">
            <path id="Path_258" data-name="Path 258" stroke="#d43f3b" d="M240.2,23.5H234" fill="rgba(0,0,0,0)" transform="translate(-234 -23.5)" stroke-linecap="round" stroke-linejoin="round" stroke-width="4" fill-rule="evenodd"/>
            <g id="Group_421" data-name="Group 421" transform="translate(0 12.27)">
              <path id="Path_259" data-name="Path 259" stroke="#d43f3b" d="M240.2,38.5H234" fill="rgba(0,0,0,0)" transform="translate(-234 -38.5)" stroke-linecap="round" stroke-linejoin="round" stroke-width="4" fill-rule="evenodd"/>
            </g>
            <g id="Group_422" data-name="Group 422" transform="translate(0 24.539)">
              <path id="Path_260" data-name="Path 260" stroke="#d43f3b" d="M240.2,53.5H234" fill="rgba(0,0,0,0)" transform="translate(-234 -53.5)" stroke-linecap="round" stroke-linejoin="round" stroke-width="4" fill-rule="evenodd"/>
            </g>
          </g>
        </g>
        <g id="Group_425" data-name="Group 425" transform="translate(2392.223 -694.892)">
          <text id="E" transform="translate(-0.223 27.892)" fill="#fff" font-size="29" font-family="Montserrat-Bold, Montserrat" font-weight="700"><tspan x="0" y="0">E</tspan></text>
        </g>
      </g>
    </g>
  </g>
</svg>
