<svg xmlns="http://www.w3.org/2000/svg" width="62.98" height="62.98" viewBox="0 0 62.98 62.98">
  <g id="Hindi" transform="translate(-686 -142)">
    <g id="Group_327" data-name="Group 327" transform="translate(-1863 851)">
      <g id="Group_319" data-name="Group 319" transform="translate(2549 -709)">
        <path id="Path_196" data-name="Path 196" d="M118.18,0H164.8a8.184,8.184,0,0,1,8.18,8.18V54.8a8.184,8.184,0,0,1-8.18,8.18H118.18A8.184,8.184,0,0,1,110,54.8V8.18A8.184,8.184,0,0,1,118.18,0Z" transform="translate(-110)" fill="#f5e6fe" fill-rule="evenodd"/>
      </g>
      <g id="Group_326" data-name="Group 326">
        <g id="Group_324" data-name="Group 324" transform="translate(2561 -699)">
          <g id="Group_320" data-name="Group 320" transform="translate(2.454)">
            <path id="Path_197" data-name="Path 197" d="M132.09,12H159.9a4.092,4.092,0,0,1,4.09,4.09V51.263a4.092,4.092,0,0,1-4.09,4.09H132.09a4.092,4.092,0,0,1-4.09-4.09V16.09A4.092,4.092,0,0,1,132.09,12Z" transform="translate(-128 -12)" fill="#cc84fa" fill-rule="evenodd"/>
          </g>
          <g id="Group_323" data-name="Group 323" transform="translate(0 9.407)">
            <path id="Path_198" data-name="Path 198" stroke="#b362bd" d="M131.2,23.5H125" fill="rgba(0,0,0,0)" transform="translate(-125 -23.5)" stroke-linecap="round" stroke-linejoin="round" stroke-width="4" fill-rule="evenodd"/>
            <g id="Group_321" data-name="Group 321" transform="translate(0 12.27)">
              <path id="Path_199" data-name="Path 199" stroke="#b362bd" d="M131.2,38.5H125" fill="rgba(0,0,0,0)" transform="translate(-125 -38.5)" stroke-linecap="round" stroke-linejoin="round" stroke-width="4" fill-rule="evenodd"/>
            </g>
            <g id="Group_322" data-name="Group 322" transform="translate(0 24.539)">
              <path id="Path_200" data-name="Path 200" stroke="#b362bd" d="M131.2,53.5H125" fill="rgba(0,0,0,0)" transform="translate(-125 -53.5)" stroke-linecap="round" stroke-linejoin="round" stroke-width="4" fill-rule="evenodd"/>
            </g>
          </g>
        </g>
        <g id="Group_325" data-name="Group 325" transform="translate(2569 -694)">
          <text id="H" transform="translate(0 26)" fill="#fff" font-size="27" font-family="Montserrat-Bold, Montserrat" font-weight="700"><tspan x="0" y="0">H</tspan></text>
        </g>
      </g>
    </g>
  </g>
</svg>
