<svg xmlns="http://www.w3.org/2000/svg" width="50.149" height="44.034" viewBox="0 0 50.149 44.034">
  <g id="Group_2260" data-name="Group 2260" transform="translate(228.204 -2651.167)">
    <g id="Group_2256" data-name="Group 2256" transform="translate(-228.204 2651.167)">
      <g id="Group_935" data-name="Group 935" transform="translate(0 0)">
        <path id="Path_1521" data-name="Path 1521" d="M3479.517,333.117c-9.352-5.226-31.905-7.7-37.131,1.65s-5.776,25.579,1.925,33.005,27.229,6.876,37.956-7.151S3488.869,338.343,3479.517,333.117Z" transform="translate(-3438.487 -328.471)" fill="#26c6da"/>
        <g id="Group_927" data-name="Group 927" transform="translate(11.444 9.287)">
          <path id="Path_1512" data-name="Path 1512" d="M461.73,226.446a9.491,9.491,0,0,0-5.181-1.611c-6.622,0-10.3,3.5-11.6,8.373" transform="translate(-444.95 -211.454)" fill="none" stroke="#fff" stroke-linecap="round" stroke-linejoin="round" stroke-width="2"/>
          <ellipse id="Ellipse_20" data-name="Ellipse 20" cx="5.049" cy="5.049" rx="5.049" ry="5.049" transform="translate(6.681 0)" fill="none" stroke="#fff" stroke-linecap="round" stroke-linejoin="round" stroke-width="2"/>
          <g id="Group_912" data-name="Group 912" transform="translate(15.478 14.004)">
            <line id="Line_3" data-name="Line 3" y2="11.684" transform="translate(6.166)" fill="none" stroke="#fff" stroke-linecap="round" stroke-linejoin="round" stroke-width="2"/>
            <line id="Line_4" data-name="Line 4" x1="12.333" transform="translate(0 5.842)" fill="none" stroke="#fff" stroke-linecap="round" stroke-linejoin="round" stroke-width="2"/>
          </g>
        </g>
      </g>
    </g>
  </g>
</svg>
